<?xml version="1.0" encoding="iso-8859-1"?>
<!-- Uploaded to: SVG Repo, www.svgrepo.com, Generator: SVG Repo Mixer Tools -->
<svg height="800px" width="800px" version="1.1" id="Layer_1" xmlns="http://www.w3.org/2000/svg" xmlns:xlink="http://www.w3.org/1999/xlink" 
	 viewBox="0 0 512 512" xml:space="preserve">
<circle style="fill:#FAD24D;" cx="256" cy="255.998" r="255.998"/>
<path style="fill:#0F7986;" d="M11.073,330.632c19.935-117.256,122.004-206.536,244.932-206.536
	c122.932,0,224.997,89.28,244.936,206.531C468.998,435.606,371.431,512,256.009,512S43.025,435.611,11.078,330.632H11.073z"/>
<path style="fill:#21D0C3;" d="M482.516,375.346c-1.621,3.067-3.298,6.101-5.034,9.094c-0.601-0.466-1.109-0.78-1.33-0.744
	c-0.693,0.134-0.73-0.753-0.102-1.958c0.628-1.224,3.972-1.815,3.898-3.28c-0.079-1.311,1.51-3.095,2.573-3.109L482.516,375.346z
	 M467.395,400.412c-4.665,6.813-9.648,13.39-14.928,19.708c-1.742-0.462-3.266-0.974-3.663-1.607
	c-0.937-1.543,0.351-8.157,3.977-10.096c3.589-1.93,8.614-12.817,10.17-12.272c1.418,0.494,4.115,3.002,4.448,4.273L467.395,400.412
	z M446.416,427.099c-0.933,1.039-1.88,2.069-2.831,3.09c-2.286-0.554-3.953-1.09-3.838-1.52c0.25-1.081,3.552-2.749,6.383-1.686l0,0
	l0.291,0.116H446.416z M142.369,485.439c-23.934-11.884-45.748-27.389-64.718-45.818c-1.178-2.933-1.288-8.18-0.513-8.272
	c0.979-0.134,1.506-2.069,0.267-2.619c-1.266-0.554-4.157-4.24-4.642-6.037c-0.471-1.779,1.719-10.827,2.767-12.073
	c1.067-1.238,1.944-7.477,2.429-7.999c0.494-0.54,0.332-3.926-0.295-5.307c-0.642-1.367-1.856-5.362-2.332-4.66
	c-0.466,0.693-2.951,1.15-4.448-0.503c-1.501-1.658-7.686-3.995-7.686-4.498c0-0.508-0.794-2.392-1.783-3.062
	c-1.007-0.652-3.399-3.824-4.424-4.301c-1.007-0.448-5.695-1.025-6.365-2.162c-0.702-1.141-5.155-5.085-8.674-5.834
	c-3.538-0.735-14.494-4.965-15.625-7.002c-1.136-2.032-2.36-11.537-3.556-12.998c-1.178-1.483-4.79-5.538-4.762-6.424
	c0.037-0.882-1.376-0.162-0.891,1.035c0.167,0.397,0.255,1.16,0.267,1.995c-2.48-6.365-4.707-12.863-6.679-19.468
	c7.709-43.398,26.683-82.948,53.817-115.483c1.234,0.162,2.291,0.522,2.341,0.998c0.125,1.076,2.203,0.698,2.997-1.783
	c0.471-1.464-0.019-3.381-0.434-4.863c1.072-1.229,2.157-2.462,3.27-3.663c1.898,0.753,4.702,1.866,5.487,3.118
	c1.099,1.728,4.277,5.995,3.441,6.909c-0.863,0.928,1.404,3.071,2.332,2.032c0.937-1.053,1.981-4.725,1.136-4.845
	c-0.845-0.116-2.882-4.041-2.947-8.124c-0.037-4.055,5.34-9.843,6.396-9.279c1.039,0.577,3.404,3.427,5.709,2.116
	c2.296-1.311,4.799,2.993,6.166,2.6c1.344-0.402,6.869,0.208,7.695,0.675c0.822,0.49,2.304,3.811,3.728,3.811
	c1.436,0,5.751,0.965,6.387,2.162c0.665,1.192,1.774,4.799,1.123,5.298c-0.656,0.49-0.355,3.32,0.993,3.963
	c1.33,0.647,5.45,2.415,5.515,3.376c0.065,0.928,2.18,1.691,1.783,2.466c-0.439,0.753-0.817,4.508-1.594,4.858
	c-0.785,0.351-1.977,2.314-2.988,1.344c-1.011-0.97-4.628-1.279-4.004-0.406c0.614,0.868,0.863,5.266,0.093,6.744
	c-0.758,1.52-1.575,6.046-4.152,4.199c-2.591-1.856-11.741-5.916-13.75-5.82c-2,0.088-0.351-4.009,5.38-6.387c0,0,0,0,0.882-6.832
	c0.466-4.032,0.466-4.032,0.466-4.032c-2.162-1.371-5.173-3.15-6.633-3.93c-1.492-0.785-5.238,0.924-6.461,0.332
	c-1.206-0.614-4.877-0.476-3.944-0.088c0.9,0.392,2.411,3.371,2.143,4.956c-0.263,1.575-1.981,7.067-3.94,7.741
	c-1.967,0.684-9.238,2.96-8.955,3.501c0.272,0.577-0.998,3.635-2.637,4.799c-1.631,1.15-5.751,6.494-6.878,7.871
	c-1.136,1.348-4.886,4.785-4.858,5.672c0.051,0.9-0.891,1.598,0.231,2.129c1.09,0.508,2.171,6.41,4.088,7.426
	c1.912,1.058,6.679,4.314,7.417,3.816c0.763-0.485,2.485,1.234,2.97,0.457c0.476-0.794,2.988,2.323,3.418,4.623
	c0.416,2.3,2.988,4.937,3.348,2.406c0.36-2.531,3.09-6.401,2.364-6.18c-0.716,0.222-1.321-2.231-0.304-2.162
	c1.044,0.088,3.87-2.849,4.457-6.194c0.587-3.334,0.286-15.717,0.924-16.082c0.587-0.351,3.658,0.536,4.231,1.492
	c0.559,0.956,4.032,0.309,4.909,1.691c0.882,1.399,6.203,1.691,6.203,3.413c0,1.728,0.965,6.291,2.153,6.401
	c1.192,0.111,4.051-0.014,4.157-0.933c0.097-0.914,1.492-1.316,2.475,0.684c0.998,2,5.131,6.323,5.076,7.131
	c-0.037,0.794,0.213,3.183,1.441,4.259c1.197,1.081,2.725,6.041,3.464,5.57c0.753-0.503,3.062,2.296,3.15,4.023
	c0.069,1.737,0.314,10.18,0.863,11.625c0.559,1.45,4.125,3.949,4.032,5.164c-0.13,1.197-0.974,3.824-2.438,3.187
	c-1.441-0.633-3.654,0.638-3.861,0.019c-0.218-0.628-1.311-2.24-2.337-1.801c-1.035,0.416-3.797-1.686-2.213-3.912
	c1.617-2.227,3.141-7.75,0.988-6.124c-2.19,1.631-7.953,0.42-7.602,1.099c0.351,0.661-0.794,3.728-2.106,4.046
	c-1.297,0.328-1.944,3.884-0.873,4.758c1.095,0.914,2.749,3.977,1.062,5.09c-1.441,0.942-4.827,2.702-5.312,2.974
	c0.605-0.337-1.52-2.503-3.977-1.756c-2.457,0.775-7.182,4.809-6.591,5.542c0.568,0.716-0.638,4.845-2.24,5.524
	c-1.607,0.675-6.66,3.672-7.746,5.085c-1.049,1.422-0.309,7.967-0.965,8.286c-0.638,0.346-3.025,0.97-2.781,1.76
	c0.208,0.799-2.647,5.298-5.321,6.683c-2.712,1.371-6.023,9.463-5.579,10.351c0.429,0.891,1.594,4.06,1.297,5.312
	c-0.286,1.243-0.933,6.383-2.73,5.547c-1.787-0.817-4.263-7.482-5.972-8.184c-1.737-0.702-7.514-1.178-7.769-0.771
	c-0.267,0.402-1.682,1.325-3.252,0.416c-1.566-0.887-8.646-0.48-9.944,0.314c-1.297,0.808-6.526,7.644-7.797,14.244
	c-1.307,6.614,9.704,10.133,10.226,8.642c0.513-1.487,3.533-4.61,4.772-4.438c1.215,0.148,6.069,1.529,5.589,3.737
	c-0.485,2.203,0.281,8.208,2.684,8.342c2.438,0.148,5.57,5.848,5.007,8.716c-0.587,2.868,1.875,9.085,2.942,8.346
	c1.072-0.763,4.97-1.977,5.995-1.538c1.025,0.457,2.872,2.831,4.452,1.603c1.533-1.252,4.932-6.415,5.907-6.725
	c0.988-0.332,3.095-1.515,3.718-0.679c0.647,0.854,3.344,1.381,3.533,0.378c0.19-0.998,4.259-0.065,5.626,1.03
	c1.334,1.127,3.953,5.076,4.374,4.684c0.388-0.429,3.575-0.148,5.663,1.011c2.129,1.155,8.919,5.002,9.602,6.822
	c0.693,1.842,6.9,6.827,10.439,8.978c3.547,2.129,4.628,8.669,5.427,9.187c0.812,0.513,5.206,1.362,6.923,1.889
	c1.728,0.554,5.579,3.704,6.688,3.704c1.123,0,5.515,0.554,7.289,1.197c1.751,0.67,5.215,3.802,5.986,3.062
	c0.758-0.749,3.755,2.637,4.744,5.344c0,0,0,0-0.028,3.501c0.019,2.19,0.019,2.19,0.019,2.19c-0.517,1.88-0.984,4.111-1.053,4.988
	c-0.074,0.887-3.164,4.795-4.018,5.737c-0.859,0.942-2.194,5.057-2.536,5.394c-0.323,0.341-2.116,1.238-2.222,2.309
	c-0.12,1.049-1.801,5.367-2.19,8.586c-0.388,3.224-1.907,12.203-2.905,12.618c-1.007,0.402-6.595,2.965-7.335,4.032
	c-0.749,1.072-3.03,4.633-3.03,5.82c0,0.587-0.286,1.838-0.753,3.104L142.369,485.439z M112.176,295.534L112.176,295.534
	l0.023-0.014C112.116,295.558,112.103,295.567,112.176,295.534z M136.646,156.247c-0.448-0.06-10.845,5.38-20.373,10.776
	c-10.873,7.381-21.08,15.629-30.636,24.6c2.97-0.222,7.584-0.766,9.524-1.099l0,0c2.984-0.494,7.935-1.321,8.286-2.157
	c0.236-0.689,0.272-2.739-0.286-3.445c0.476,0.032,1.021,0.046,1.441,0.046c1.127,0,3.011-6.194,4.203-7.644
	c1.197-1.455,8.009-3.584,9.63-4.563c1.631-0.993,5.178-4.401,6.535-4.804c1.376-0.411,3.357-3.589,3.058-4.236
	c-0.295-0.628,4.61-3.617,6.489-4.401c1.847-0.794,2.19-2.91,2.125-3.067L136.646,156.247z M275.205,500.375L275.205,500.375
	c3.187-1.875,8.605-9.884,10.379-11.56c1.783-1.695,3.076-7.75,3.455-9.071c0.351-1.33,3.067-3.473,4.078-3.755
	c0.998-0.286,4.245-13.713,7.067-16.641c2.826-2.937,6.157-17.121,5.806-22.239c-0.36-5.085,1.824-14.817,2.485-17.154
	c0.684-2.332,4.231-6.489,5.344-7.344c1.09-0.873,7.93-10.992,10.152-14.613c2.185-3.635,4.287-11.607,3.87-13.478
	c-0.416-1.87-5.187-3.164-6.078-2.25c-0.887,0.928-5.367,1.682-6.804,1.682c-1.432,0-4.725-7.681-6.762-9.265
	c-2.032-1.57-3.87-10.374-5.048-12.036s-4.457-5.884-5.491-6.845c-1.025-0.961-1.206-5.635-1.441-6.918
	c-0.217-1.266,1.991,0.845,2.369,2.693c0.388,1.866,5.653,9.367,7.284,11.884c1.635,2.536,5.935,10.563,7.029,13.085
	c1.099,2.499,10.674,1.234,13.773-0.222c3.109-1.478,6.974-3.953,7.131-4.822c0.13-0.868,5.094-3.146,6.457-4.24
	c1.376-1.099,2.596-6.859,3.492-7.774c0.9-0.947-0.721-6.429-1.751-8.06c-1.025-1.635-6-2.942-6.988-2.3
	c-1.011,0.642-3.146-3.681-3.916-5.261c-0.758-1.603-4.559-3.547-4.983-4.628c-0.388-1.109,1.049-2.812,1.644-3.187
	c0.596-0.383,7.598,4.531,9.621,6.969c1.991,2.448,4.296,6.932,4.697,7.727c0.355,0.771,5.893,1.178,7.122,0.272
	c1.224-0.914,2.651-0.67,3.132,0.499c0,0,0,0,1.732-0.309c6.064-0.937,6.064-0.937,6.064-0.937c2.872,3.104,3.7,5.797,3.635,6.424
	c-0.06,0.591,1.756,3.122,2.933,3.39c1.178,0.267,2.037,4.24,2.397,5.224c0.341,0.984,3.806,6.918,4.508,9.423
	c0.712,2.489,3.663,7.367,4.374,8.679c0.684,1.307,1.28,5.085,1.28,6.12c0,1.035,2.213,3.071,3.598,2.97
	c1.367-0.083,4.157-8.78,4.809-12.013c0.628-3.229,2.863-5.893,3.492-5.893c0.647,0,1.146-1.819,1.146-2.513
	c0-0.675,3.515-0.605,3.833-1.487c0.295-0.882,1.339-6.623,2.591-7.496c1.261-0.873,5.704-3.788,7.279-4.337
	c1.543-0.531,5.528,2.905,6.429,4.508c0.882,1.598,1.691,5.69,1.344,6.356c-0.328,0.67,2.097,4.194,4.24,4.129
	c2.106-0.06,2.781,2.698,2.835,3.686c0.097,0.998,2.882,3.839,3.445,5.118c0.54,1.275,0.388,4.739,0.018,5.528
	c-0.388,0.78-0.134,5.33,0.272,6.609c0.406,1.261,6.946,7.889,9.386,9.898c2.457,2.004,3.603-4.088,2.341-5.986
	c-1.243-1.898-5.501-6.319-6.508-7.625c-1.007-1.33-1.173-6.628-0.794-8.092c0.36-1.492,3.728,0.813,5.122,1.88
	c1.395,1.076,3.224,3.459,3.275,4.259c0.046,0.785,8.804-4.111,9.099-9.44c0.323-5.317,3.224-11.311,3.51-12.706
	c0.291-1.408-0.863-3.334-1.598-3.385c-0.749-0.074,1.297-4.06,3.751-4c2.457,0.079,8.365-6.508,9.76-9.113
	c1.395-2.614,4.213-4.762,4.526-5.094c0.341-0.304,2.304-6.484,2.647-9.043c0.332-2.554-1.445-6.545-1.654-7.866
	c-0.208-1.316-2.327-4.355-2.882-5.312c-0.531-0.951-1.053-4.531-0.712-5.201c0.309-0.651,2.531-1.371,2.762-1.958
	c0.25-0.61,2.772-3.306,2.587-4.494c-0.19-1.201,1.575,1.538,2.735,2.517c1.155,0.988,2.406,7.33,3.856,8.032
	c1.413,0.698,7.233-6.725,6.508-11.514c-0.712-4.799,1.691-10.928,3.085-11.482c1.062-0.411,3.797-4.287,5.653-7.071
	c-12.78-36.895-33.975-69.868-61.319-96.624c-0.323,0.019-0.642,0.032-0.947-0.028c-2.129-0.462-2.129-0.462-2.129-0.462
	c-3.575-0.766-5.653-4.582-5.044-5.464c0.213-0.281,0.157-0.919-0.023-1.677c-1.977-1.796-4.018-3.561-6.097-5.284
	c-1.677-0.056-3.464,0-4.498-0.056c-2.143-0.074-6.781-1.598-7.607-2.429c-0.845-0.822-3.644,0.73-3.797,2.278
	c-0.19,1.547-5.067,2.264-5.51,3.441c-0.494,1.164-2.997,1.257-3.482,0.591c-0.48-0.656-5.011,1.594-7.256,1.93
	c-2.245,0.309-6.434,2.139-7.431,2.587c-1.007,0.439-3.39,2.776-3.779,3.728c-0.378,0.974-3.27,2.587-4.194,2.965
	c-0.937,0.365-0.753,4.563,0.457,5.159c1.183,0.582-2.231-0.508-3.728-1.288c-1.529-0.749-3.187,1.801-3.654,2.679
	c-0.485,0.873-1.856-0.531-1.801-1.774c0.046-1.274-3.728-2.282-4.222-1.274c-0.513,1.002-3.122-0.328-4.203-0.896
	c-1.09-0.582-5.764,4.314-7.501,6.074c-1.737,1.746-10.045,3.104-11.602,2.448c-1.557-0.652-3.085,3.672-1.76,3.977
	c1.307,0.255-3.376-0.222-5.949,0.014c-2.587,0.258-10.092,3.261-11.875,4.596c-1.815,1.339-3.247-0.295-3.247-1.321
	c0-1.025-2.859-1.972-3.714-2.264c-0.831-0.286-2.513,5.621-3.99,6.748c-1.492,1.155-3.284-4.61-6.781-5.552
	c-3.505-0.942-8.974-4.333-10.54-4.73c-1.538-0.415-4.67-3.691-5.547-4.633c-0.882-0.947-5.358-1.723-6.794-1.723
	c-1.441,0-6.083,2.665-7.312,3.705c-1.284,1.053-3.132,0.84-3.751,1.22c-0.615,0.369-5.87,5.515-7.894,7.117
	c-2.037,1.607-5.598,8.526-6.734,10.184c-1.183,1.645-2.84,1.954-3.519,2c-0.684,0.032-1.243,1.875-1.243,2.55
	c0,0.689-6.023,3.82-6.651,6.554c-0.633,2.73,0.591,8.974,0.591,11.2c0,2.222,2.24,6.623,3.907,6.697
	c1.663,0.079,0.799,3.774,0.351,4.809c-0.439,1.044,1.053,2.171,1.007,3.053c-0.037,0.887-4.222,2.12-5.51,2.624
	c-1.307,0.476-3.39,3.394-3.672,4.475c-0.227,0.956-4.24,1.631-5.57,2.905c0.323-0.919,0.775-2.19,1.136-2.905
	c0.771-1.455-0.295-4-0.919-4.522c-0.638-0.536-0.928-7.774-1.944-9.316c-1.016-1.566-3.547-4.199-4.171-4.707
	c-0.628-0.499,0.434-2.411,0.794-3.224c0.369-0.799-3.376-1.266-4.401-0.661c-1.021,0.582-1.57,7.755-2,9.713
	c-0.42,1.958,1.852,4.974,2.475,5.108c0.596,0.148,0.439,3.681-0.873,3.788c-1.316,0.134-2.517,5.284-1.842,6.461
	c0.679,1.173-0.937,3.487-1.714,4.018c-0.766,0.522,5.025,0.227,7.69,0.153c2.647-0.065,4.73,1.118,4.448,1.33
	c-0.281,0.222-5.076,0.942-5.939,2.074c-0.854,1.136-4.106,3.326-4.739,4.208c-0.628,0.863,1.072,2.808,2.457,2.716
	c1.371-0.079,2.942,4.772,4.023,5.663c1.072,0.914,0.675,3.418,0.218,4.115c-0.503,0.675-6.974-0.466-9.427,0.143
	c-2.475,0.605-5.589,5.82-5.797,7.778c-0.231,1.977,0.397,7.621,0.73,9.187c0.3,1.552,5.464,2.54,6.498,3.307
	c1.072,0.749,5.995,0.018,7.039,0.494c0.993,0.49,4.333-5.002,4.997-7.547c0.638-2.559,5.912-7.224,7.002-8.965
	c1.09-1.723,6.767-1.524,8.161-2.443c1.395-0.887,0.614,4.31,1.288,7.164c0.665,2.868,6.092,2.513,5.293-0.185
	c-0.799-2.665,0.54-3.842,0.758-2.863c0.241,0.951,5.441,3.09,6.434,4.596c0.974,1.515,0.707,4.721-0.453,4.684
	c-1.16-0.046-1.206,3.515,0.028,3.893c1.215,0.388,2.854-4.004,4.176-4.647c1.307-0.661,2.369-3.39,1.751-3.603
	c-0.587-0.208,1.123-2.656,1.87-1.852c0.739,0.803-2.79-5.321-5.011-7.561c-2.217-2.231-0.656-1.238,3.492,2.203
	c0,0,0,0,2.863,4.018c0.559,0.721,1.288,2.914,1.783,3.723c0.675,1.183,0.675,1.183,0.675,1.183
	c0.559,1.404,1.049,5.247,1.049,6.296c0,1.021,2.25,3.067,3.607,2.974c1.367-0.097,2.397,0.652,2.111,0.702
	c-0.281,0.051,0.9,2.707,2.259,2.772c1.348,0.06,1.94-3.436,0.568-3.524c-1.358-0.074-1.15-5.136-1.325-7.316
	c-0.153-2.203,0.988-4.009,1.459-4.009c0.466,0-0.065,4.522-0.018,5.566c0.018,1.03,0.587,3.085,1.234,4.554c0,0,0,0,1.404,1.067
	c3.141,2.415,3.141,2.415,3.141,2.415c4.508-1.33,10.558-0.314,10.323,0.615c-0.25,0.924,3.33,1.141,3.547-0.355
	c0.208-1.473,0.378,0.042,0.378,1.081c0,1.007-2.96,5.03-3.445,6.905c-0.499,1.842-10.901,0.587-15.376,0.245
	c-4.48-0.332-11.08,1.187-11.593,2.522c-0.49,1.339-7.487-3.071-10.678-4.411c-3.215-1.358-5.732-6.245-6.383-6.878
	c-0.661-0.642,0.55-2.222,0.245-3.178c-0.309-0.984-7.625-1.183-9.741-0.383c-2.134,0.775-13.103,1.94-15.703,3.081
	c-2.577,1.16-6.498-0.069-7.713-0.286c-1.21-0.213-4.115,3.367-5.579,4.014c-1.496,0.647-3.357,5.718-4.166,11.298
	c0,0,0,0-1.991,3.879c-1.288,2.48-1.288,2.48-1.288,2.48c-3.626,2.758-7.63,11.949-8.817,13.792
	c-1.164,1.842-2.106,15.08-2.106,19.533s3.879,13.875,4.983,16.475c1.104,2.605,7.82,8.356,10.059,9.741
	c2.25,1.344,9.542,1.524,11.931,1.524c2.383-0.009,5.118-2.282,6.037-5.048c0,0,0,0,3.51,0.351c1.603,0.167,1.603,0.167,1.603,0.167
	c0.088,1.958,5.256,3.524,6.526,4.217c1.261,0.689,4.679,0.176,5.681-0.13c1.025-0.286,2.157,8.85,1.418,11.496
	c-0.721,2.637,1.801,11.907,2.54,14.701c0.749,2.794,3.921,10.416,4.25,13.159c0.295,2.744-1.87,11.847-2.231,15.03
	c-0.351,3.206,3.977,12.119,5.136,15.191c1.118,3.062,2.046,9.667,2.046,11.187c0,1.533,4.744,10.766,5.815,14.553
	C260.129,501.317,272.017,502.246,275.205,500.375z M468.724,354.552L468.724,354.552c0.9-1.229-1.243-7.062-2.323-5.741
	c-1.072,1.316-0.286,4.707,0.042,5.907c0.341,1.164,1.385,1.09,2.278-0.167H468.724z M475.44,367.06L475.44,367.06
	c0.642-1.496-0.799-3.155-3.206-3.667c-2.42-0.494-2.06,6.748-0.998,7.676c1.044,0.9,3.543-2.485,4.203-4.004v-0.005H475.44z
	 M486.419,323.122L486.419,323.122c-1.206,0.845-1.833,2.97-1.459,3.838c-0.176-0.014-0.328-0.019-0.499-0.019
	c-0.956,0-1.072,3.792-0.046,4.448c0.979,0.642,3.427-2.965,4.693-3.824c1.266-0.863,3.815-1.39,4.199-1.109
	c0.397,0.272,2.624-0.402,4.979-1.487c0.42-0.199,0.9-0.817,1.399-1.705c-0.559-2.772-1.229-5.505-1.898-8.245
	c-1.192,0.887-2.55,1.838-3.178,2.392c-1.271,1.16-6.633,4.628-8.198,5.704L486.419,323.122z M420.616,399.544L420.616,399.544
	c0,0,0.028,0,0.037,0.014C420.149,399.188,420.081,399.151,420.616,399.544z M438.555,416.245L438.555,416.245
	c-1.044-2.364-4.494-6.342-7.663-8.859c0,0,0,0-1.206-1.977c-1.311-2.18-1.311-2.18-1.311-2.18
	c-1.183-2.392-4.753-4.231-5.062-4.942c-0.304-0.698-1.445,2.074-2.656,1.271c0.638,0.443,1.963,1.39,3.842,2.725
	c3.348,2.401,9.801,18.609,11.261,19.745c1.455,1.141,3.833-3.413,2.798-5.778L438.555,416.245z M387.158,390.057L387.158,390.057
	c-0.891,1.833,4.772,5.727,5.206,4.832c0.462-0.887-0.721-5.376-1.737-6.378C389.633,387.535,388.063,388.232,387.158,390.057z
	 M311.942,476.667L311.942,476.667c0.231,1.93,4.138,3.455,5.256,3.141c1.169-0.318,4.319-6.143,4.753-7.82
	c0.448-1.686,0.813-5.289,0.813-6.152c0-0.836,0.517-2.781,0.956-3.03c0.416-0.213,1.146-2.213,1.584-4.383
	c0.439-2.222-2.341-12.439-2.425-14.226c-0.069-1.805-2.097,0.928-2.61,2.744c-0.55,1.81-5.626,5.515-6.767,7.062
	c-1.118,1.538-2.369,6.762-1.926,7.672c0.416,0.896-0.443,4.457-0.965,5.445c-0.485,0.998,1.141,7.607,1.334,9.547H311.942z
	 M219.632,162.251L219.632,162.251c-1.436,0.176-5.145-0.577-5.788-1.257c-0.628-0.675-6.208-1.279-7.801-0.61
	c-1.612,0.67-0.508-3.912,1.728-4.406c2.227-0.508,0.332-3.667-2.041-3.667c-2.388-0.023-8.249-0.882-9.63-0.573
	c-1.381,0.3-4.078-0.965-5.057-1.109c-0.984-0.143-8.036,2.106-11.362,1.94c-3.348-0.143-11.537,0.19-13.302,0.689
	c-1.801,0.462-3.085,3.94-2.826,5.159c0.263,1.252-7.921,1.22-10.493,1.257c-2.582,0.042-16.309,2.96-19.884,4.932
	c-3.584,1.963-6.383,7.002-5.201,7.104c1.187,0.097-1.995,2.951-3.921,3.626c-1.921,0.652-6.517,0.951-7.607,2.032
	c-1.072,1.076,1.16,1.819,1.584,2.554c0.42,0.707,1.7-0.633,2.933,0.06c1.192,0.684,5.196,1.007,6.249,1.413
	c1.076,0.42-3.385,1.266-5.478,1.422c-2.097,0.139-1.626,4.259,0.083,4.827c1.709,0.582,6.111,1.183,6.554,0.476
	c0.457-0.716,5.229,0.771,7.39,1.03c2.134,0.227,3.797,5.626,4.438,6.799c0.67,1.164,0.803,5.27,0.638,6.461
	c-0.143,1.183,3.802,3.348,4.526,2.591c0.693-0.753,0.49,1.856-1.086,1.723c-1.575-0.139-0.554,4.424,1.418,5.085
	c1.93,0.652,0.605,3.459-0.513,4.319c-1.141,0.836-0.522,3.524-1.682,4.489c-1.136,0.956,4.097,10.027,4.06,14.711
	c-0.028,4.66,2.882,8.47,3.99,8.47c1.118,0,4.951,0.937,5.464,1.94c0.503,0.993,2.351-0.698,3.095-1.464
	c0.712-0.758,2.287-3.011,3.464-4.983c1.178-1.986,3.802-11.344,4.162-12.346c0.351-1.011,4.744-0.374,5.751-0.891
	c0.998-0.513,3.879-2.786,4.693-3.459c0.812-0.675,7.085-3.33,8.817-4.568c1.695-1.22,4.549-6.54,5.879-7.672
	c1.339-1.15-0.684-0.808-2.364-1.903c-1.649-1.09-0.919-2.425-0.434-2.937c0.471-0.522,5.528,0.836,7.275,1.51
	c1.742,0.693,5.062-1.709,3.806-2.651c-1.297-0.919-0.614-0.891,0-0.503c0.605,0.378,1.261-3.067,0.601-3.718
	c-0.675-0.67,5.113-4.886,4.088-8.878c-1.007-3.99,1.58-8.078,3.132-8.129c1.566-0.042,1.099-4.503-0.763-4.919
	c-1.852-0.411-0.102-0.822,0.587-1.459c0.689-0.628,1.575-4.61,1.178-5.371c-0.42-0.775,2.845-1.635,3.408-2.54
	c0.587-0.896,4.305-2.684,5.635-2.979c1.307-0.304,2.018-3.797,0.596-3.64L219.632,162.251z M252.06,165.503L252.06,165.503
	c-1.765-0.605-5.367,1.367-4.914,2.471c0.48,1.132-2.919-1.422-5.293-0.204c-2.374,1.238-3.016,5.385-1.935,5.93
	c1.09,0.531,1.889,3.833,1.907,4.466c0.042,0.656,4.614,0.185,5.783-0.771c1.146-0.97,0.993,3.348-0.148,4.503
	c-1.155,1.164,0.411,3.501,1.682,3.695c1.271,0.176,3.007,3.178,4.319,3.141c1.297-0.028,3.529-5.057,4.041-6.951
	c0.513-1.861,4.858-0.388,6.859,0.217c1.986,0.582,2.725-6.932,0.559-8.069c-2.143-1.113-4.846-0.559-5.746-1.418
	c-0.882-0.868-2.411-1.663-3.413-1.819c-0.998-0.143-1.935-4.586-3.691-5.192h-0.009V165.503z M269.454,169.106L269.454,169.106
	c3.51,0.49,7.454-2.388,8.309-3.215c0.877-0.803-9.723-2.97-13.759-3.099c-4.027-0.12-7.293,0.42-7.228,1.224
	c0.065,0.78,9.154,4.582,12.678,5.094V169.106z M205.369,264.109L205.369,264.109c-0.924-0.388-1.436,3.085-1.224,4.406
	c0.217,1.316,3.45,1.206,4.836,0.974c1.376-0.236,2.443-1.353,2.392-2.503c-0.074-1.136-2.028-6.314-2.804-6.314
	c-0.775,0-2.259,3.802-3.196,3.436L205.369,264.109L205.369,264.109z M215.77,223.704L215.77,223.704
	c-0.721-1.284-6.236-1.123-7.579-1.206c-1.325-0.079-5.454-1.446-6.245-2.323c-0.758-0.873-1.376,3.39-2.624,3.949
	c-1.266,0.545,0.624,1.358,1.141,0.91c0.503-0.457-0.037,2.194-0.605,3.104c-0.559,0.91,3.672,1.552,4.152,2.919
	c0.471,1.376,2.213,2.268,3.884,2.009c1.663-0.286,4.983-1.995,6.148-2.111c1.178-0.12,2.457-5.976,1.728-7.247L215.77,223.704
	L215.77,223.704z M331.474,192.149L331.474,192.149c1.903-1.898,9.681-4.461,10.567-6.434c0.873-1.949-0.55-3.556-1.339-3.556
	c-0.785,0-1.765,0.984-1.935,1.293c-0.199,0.332-9.131,2.429-11.866,3.751c-2.772,1.316-5.939,3.362-7.09,4.535
	c-1.16,1.16-3.048,10.027-3.718,11.025c-0.656,0.988,2.97,4.6,4.586,5.612c1.612,0.984,3.824,0.466,4.448,0.277
	c0.615-0.204-0.836-6.387-1.658-8.549C322.607,197.963,329.59,194.065,331.474,192.149z M321.909,169.064L321.909,169.064
	c2.947,2.919,4.568-1.302,7.792-0.887C329.641,162.256,321.618,164.288,321.909,169.064z M379.089,170.168L379.089,170.168
	c-0.093,1.09,8.134,1.972,10.544,1.547c2.397-0.416-0.503-4.166-4.023-3.94c-3.492,0.236-6.434,1.307-6.521,2.397V170.168z
	 M81.24,231.163L81.24,231.163c-0.863,0.808-0.106,4.846,1.547,4.96c1.64,0.111,4.273-6.087,6.291-4.845
	c2.009,1.243,3.376,1.737,3.044,1.072c-0.341-0.652-6.083-3.164-6.794-3.64c-0.712-0.425-3.196,1.677-4.088,2.448
	C81.24,231.158,81.24,231.163,81.24,231.163z M102.284,367.762L102.284,367.762c0,0.675,3.584,0.582,4.176-0.522
	c0.568-1.095,0.263-1.995-0.707-1.995C104.805,365.245,102.284,367.065,102.284,367.762z M86.316,361.859L86.316,361.859
	c1.723-0.332,0.919,2.452,1.316,3.441c0.429,1.002,4.535,1.796,5.362,2.475c0.812,0.67,2.937-1.261,4.591-1.053
	c1.644,0.208-0.54-5.695-3.307-5.528c-2.753,0.185-4.937-2.499-5.584-2.831c-0.679-0.295-3.847-2.24-4.781-2.97
	c-0.9-0.739-7.935-1.362-10.323-1.362c-2.392,0-5.02,2.438-5.38,3.233c-0.388,0.808,3.788,1.348,4.96,0.712
	c1.197-0.624,6.762,0.707,7.902,2.046c1.15,1.33,3.515,2.162,5.243,1.833L86.316,361.859L86.316,361.859z M78.811,367.762
	L78.811,367.762c0,0.675,3.621,0.25,4.489,0.272c0.891,0.019,0.85-0.573-0.069-1.307C82.321,365.998,78.811,367.065,78.811,367.762z
	 M81.37,349.116L81.37,349.116c-0.937-0.365-1.695,1.113-1.695,1.819c0,0.689,0.517,1.271,1.146,1.271
	c0.647,0,1.492-2.698,0.55-3.085v-0.005H81.37z M88.963,349.708L88.963,349.708c-0.323-0.702-1.87-1.266-2.327-1.266
	c-0.471,0-0.812,1.206-0.73,2.656c0.083,1.459,3.367-0.707,3.053-1.39H88.963z M94.427,358.123L94.427,358.123
	c1.464-0.712,1.644-2.466,0.775-2.36c-0.868,0.088-2.475-2.526-3.422-2.9c-0.942-0.378-1.709,1.57-1.709,2.42
	c0,0.85,0.531,1.436,1.178,1.261C91.891,356.387,92.949,358.802,94.427,358.123z"/>
<ellipse style="fill:#15BDB2;" cx="93.878" cy="284.802" rx="17.057" ry="3.898"/>
<path style="fill:#FF5B62;" d="M90.413,285.197h-3.732c-2.092-5.057-6.337-13.954-8.711-18.655l-28.198-57.651
	c-12.882-25.763-24.983-51.227-37.74-76.718c-14.715-29.421-17.329-58.279,0.042-88.296c33.961-58.681,117.907-58.067,152.478-0.775
	c18.041,29.906,15.555,58.976,0.503,89.072c-2.199,4.392-73.257,147.089-74.644,153.019L90.413,285.197L90.413,285.197z"/>
<circle style="fill:#FFFFFF;" cx="88.619" cy="89.106" r="51.854"/>
<circle style="fill:#FAD24D;" cx="88.619" cy="89.116" r="28.299"/>
</svg>